<?xml version="1.0" encoding="UTF-8"?>
<!DOCTYPE svg PUBLIC "-//W3C//DTD SVG 1.1//EN" "http://www.w3.org/Graphics/SVG/1.1/DTD/svg11.dtd">
<!-- Creator: CorelDRAW 2020 (64-Bit) -->
<svg xmlns="http://www.w3.org/2000/svg" xml:space="preserve" width="1.01583in" height="1.04865in" version="1.1" style="shape-rendering:geometricPrecision; text-rendering:geometricPrecision; image-rendering:optimizeQuality; fill-rule:evenodd; clip-rule:evenodd"
viewBox="0 0 4417.46 4560.18"
 xmlns:xlink="http://www.w3.org/1999/xlink"
 xmlns:xodm="http://www.corel.com/coreldraw/odm/2003">
 <defs>
  <style type="text/css">
   <![CDATA[
    .fil0 {fill:#373435}
   ]]>
  </style>
 </defs>
 <g id="Layer_x0020_1">
  <metadata id="CorelCorpID_0Corel-Layer"/>
  <path id="Vector-Union-3" class="fil0" d="M2336.2 2425.73l1976.7 0 0 0.12 103.97 0.02c-0.03,470.44 -159.5,926.99 -452.36,1295.17 -286.2,359.75 -509.63,574.5 -966.64,702.82l0.05 -423.72c303.58,-150.23 432.93,-223.94 666.98,-517.43 164.53,-206.85 277.46,-447.87 331.86,-703.26l-1306.86 0c0,575.66 0,1156.13 0,1731.78 -63.53,18.11 -202.35,45.54 -353.11,48.93l-0.6 -1780.71 0 0 0 -353.71z"/>
  <path id="Vector-Union-2" class="fil0" d="M315.22 2425.43l0 -0.02 1768.64 0 0 353.73 -0.07 0 0 187.26 -353.71 0 0 -187.26 -1306.86 0c21.52,101.03 52.27,200.12 91.99,296.01 85.31,205.99 210.38,393.16 368.04,550.82 157.66,157.66 344.82,282.73 550.82,368.04 95.89,39.72 194.99,70.47 296.01,91.99l0 -641.04 353.71 0 0 957.11 0 0 0 158.11c-283.41,-6.21 -509.25,-62.8 -761.69,-167.35 -252.44,-104.57 -508.81,-283.11 -702.01,-476.33 -193.22,-193.21 -354.02,-442.38 -458.59,-694.82 -104.56,-252.44 -161.5,-522.72 -161.5,-795.95l315.22 -0.29z"/>
  <path id="Vector-Union" class="fil0" d="M2336.77 0c273.23,0 547.58,70.93 800.03,175.49 252.44,104.57 477.1,274.82 670.3,468.04 193.22,193.21 350.71,448.99 455.29,701.43 104.56,252.44 155.08,538.12 155.08,811.34l-382.85 0c0,-222.96 -43.91,-443.73 -129.23,-649.72 -85.33,-205.99 -210.39,-393.16 -368.04,-550.82 -157.68,-157.66 -344.84,-282.73 -550.84,-368.04 -95.89,-39.72 -194.99,-70.47 -296.01,-91.99l0 1660.57 -353.71 0 -0.02 -2156.3z"/>
  <path id="Vector-Union_0" class="fil0" d="M312.28 2154.95l-312.11 0c0,-273.23 44.58,-505.78 153.19,-798.61 104.57,-252.44 257.34,-502.08 450.56,-695.28 193.21,-193.22 407.49,-365.35 659.93,-469.92 252.44,-104.56 546.64,-190.33 819.87,-190.33l0.1 1134.63 -356.69 -0.02 0 -641.06c-101.03,21.54 -200.12,52.29 -296.01,91.99 -205.99,85.33 -393.16,210.39 -550.84,368.04 -157.65,157.68 -282.71,344.84 -368.04,550.84 -39.7,95.89 -70.45,194.99 -91.99,296.01l1306.88 0 0 -187.26 356.67 0.03 0.02 542.02 -1771.55 -1.06 0 -0.02z"/>
 </g>
</svg>
