<?xml version="1.0" encoding="utf-8"?>
<svg width="50.18164px" height="46px" viewBox="0 0 50.18164 46" version="1.1" xmlns:xlink="http://www.w3.org/1999/xlink" xmlns="http://www.w3.org/2000/svg">
  <path d="M39.7273 0L10.4545 0C4.68352 0.00683594 0.00691223 4.68359 0 10.4546L0 35.5454C0.00746155 41.3174 4.68451 45.9937 10.4555 46L39.7273 46C45.4983 45.9932 50.1749 41.3164 50.1818 35.5454L50.1818 10.4546C50.1744 4.68262 45.4973 0.00634766 39.7263 0L39.7273 0ZM10.4543 4.18164L39.7271 4.18164C42.2885 4.18652 44.5895 5.74854 45.5398 8.12695L29.5276 24.1416C27.0743 26.585 23.1071 26.585 20.6538 24.1416L4.6416 8.12695C5.59189 5.74854 7.89291 4.18652 10.4543 4.18164L10.4543 4.18164ZM39.7271 41.8179L10.4544 41.8179C6.99004 41.8179 4.18164 39.0098 4.18164 35.5454L4.18164 13.5908L17.6973 27.0981C21.7836 31.1743 28.3979 31.1743 32.4842 27.0981L45.9998 13.5908L45.9998 35.5454C45.9998 39.0098 43.1914 41.8179 39.7271 41.8179L39.7271 41.8179Z" id="Shape" fill="#FFFFFF" fill-rule="evenodd" stroke="none" />
</svg>